<?xml version="1.0" encoding="UTF-8" standalone="no" ?><!DOCTYPE svg PUBLIC "-//W3C//DTD SVG 1.1//EN" "http://www.w3.org/Graphics/SVG/1.1/DTD/svg11.dtd"><svg xmlns="http://www.w3.org/2000/svg" xmlns:xlink="http://www.w3.org/1999/xlink" version="1.1" width="700" height="550" viewBox="0 0 700 550" xml:space="preserve"><desc>Created with Fabric.js 1.7.19</desc><defs></defs><rect x="0" y="0" width="700" height="550" fill="#FFFFFF"></rect><g style="stroke: none; stroke-width: 1; stroke-dasharray: none; stroke-linecap: butt; stroke-linejoin: miter; stroke-miterlimit: 10; fill: none; fill-rule: nonzero; opacity: 1" transform="translate(0 0)" ><path d="M 0.5 0.5 L 699.5 0.5 L 699.5 549.5 L 0.5 549.5 Z" style="stroke:#000000;stroke-opacity:1; stroke-opacity: 0; stroke-width: 1; stroke-dasharray: none; stroke-linecap: butt; stroke-linejoin: miter; stroke-miterlimit: 10;fill:#FFFFFF;fill-opacity:1; fill-opacity: 0; fill-rule: nonzero; opacity: 1" transform="" stroke-linecap="round" /><path d="M 0.5 0.5 L 530.5 0.5 L 530.5 479.5 L 0.5 479.5 L 0.5 0.5 Z" style="stroke:#000000;stroke-opacity:1; stroke-opacity: 0; stroke-width: 1; stroke-dasharray: none; stroke-linecap: butt; stroke-linejoin: miter; stroke-miterlimit: 10;fill:#FFFFFF;fill-opacity:1; fill-opacity: 0; fill-rule: nonzero; opacity: 1" transform=" matrix(1 0 0 1 99 40) " stroke-linecap="round" /><path d="M 0.5 10.5 L 6.5 10.5" style="stroke:#000000;stroke-opacity:1; stroke-width: 1; stroke-dasharray: none; stroke-linecap: butt; stroke-linejoin: miter; stroke-miterlimit: 10; fill: none; fill-rule: nonzero; opacity: 1" transform=" matrix(1 0 0 1 93 40) " stroke-linecap="round" /><path d="M 0.5 0.5 L 0.5 0.5 L 530.5 0.5" style="stroke:#000000;stroke-opacity:1; stroke-opacity: 0.15; stroke-width: 1; stroke-dasharray: none; stroke-linecap: butt; stroke-linejoin: miter; stroke-miterlimit: 10; fill: none; fill-rule: nonzero; opacity: 1" transform=" matrix(1 0 0 1 99 40) " stroke-linecap="round" /><path d="M 0.5 29.5 L 6.5 29.5" style="stroke:#000000;stroke-opacity:1; stroke-width: 1; stroke-dasharray: none; stroke-linecap: butt; stroke-linejoin: miter; stroke-miterlimit: 10; fill: none; fill-rule: nonzero; opacity: 1" transform=" matrix(1 0 0 1 93 40) " stroke-linecap="round" /><path d="M 0.5 19.5 L 0.5 19.5 L 530.5 19.5" style="stroke:#000000;stroke-opacity:1; stroke-opacity: 0.15; stroke-width: 1; stroke-dasharray: none; stroke-linecap: butt; stroke-linejoin: miter; stroke-miterlimit: 10; fill: none; fill-rule: nonzero; opacity: 1" transform=" matrix(1 0 0 1 99 40) " stroke-linecap="round" /><path d="M 0.5 48.5 L 6.5 48.5" style="stroke:#000000;stroke-opacity:1; stroke-width: 1; stroke-dasharray: none; stroke-linecap: butt; stroke-linejoin: miter; stroke-miterlimit: 10; fill: none; fill-rule: nonzero; opacity: 1" transform=" matrix(1 0 0 1 93 40) " stroke-linecap="round" /><path d="M 0.5 38.5 L 0.5 38.5 L 530.5 38.5" style="stroke:#000000;stroke-opacity:1; stroke-opacity: 0.15; stroke-width: 1; stroke-dasharray: none; stroke-linecap: butt; stroke-linejoin: miter; stroke-miterlimit: 10; fill: none; fill-rule: nonzero; opacity: 1" transform=" matrix(1 0 0 1 99 40) " stroke-linecap="round" /><path d="M 0.5 67.5 L 6.5 67.5" style="stroke:#000000;stroke-opacity:1; stroke-width: 1; stroke-dasharray: none; stroke-linecap: butt; stroke-linejoin: miter; stroke-miterlimit: 10; fill: none; fill-rule: nonzero; opacity: 1" transform=" matrix(1 0 0 1 93 40) " stroke-linecap="round" /><path d="M 0.5 57.5 L 0.5 57.5 L 530.5 57.5" style="stroke:#000000;stroke-opacity:1; stroke-opacity: 0.15; stroke-width: 1; stroke-dasharray: none; stroke-linecap: butt; stroke-linejoin: miter; stroke-miterlimit: 10; fill: none; fill-rule: nonzero; opacity: 1" transform=" matrix(1 0 0 1 99 40) " stroke-linecap="round" /><path d="M 0.5 86.5 L 6.5 86.5" style="stroke:#000000;stroke-opacity:1; stroke-width: 1; stroke-dasharray: none; stroke-linecap: butt; stroke-linejoin: miter; stroke-miterlimit: 10; fill: none; fill-rule: nonzero; opacity: 1" transform=" matrix(1 0 0 1 93 40) " stroke-linecap="round" /><path d="M 0.5 76.5 L 0.5 76.5 L 530.5 76.5" style="stroke:#000000;stroke-opacity:1; stroke-opacity: 0.15; stroke-width: 1; stroke-dasharray: none; stroke-linecap: butt; stroke-linejoin: miter; stroke-miterlimit: 10; fill: none; fill-rule: nonzero; opacity: 1" transform=" matrix(1 0 0 1 99 40) " stroke-linecap="round" /><path d="M 0.5 105.5 L 6.5 105.5" style="stroke:#000000;stroke-opacity:1; stroke-width: 1; stroke-dasharray: none; stroke-linecap: butt; stroke-linejoin: miter; stroke-miterlimit: 10; fill: none; fill-rule: nonzero; opacity: 1" transform=" matrix(1 0 0 1 93 40) " stroke-linecap="round" /><path d="M 0.5 95.5 L 0.5 95.5 L 530.5 95.5" style="stroke:#000000;stroke-opacity:1; stroke-opacity: 0.15; stroke-width: 1; stroke-dasharray: none; stroke-linecap: butt; stroke-linejoin: miter; stroke-miterlimit: 10; fill: none; fill-rule: nonzero; opacity: 1" transform=" matrix(1 0 0 1 99 40) " stroke-linecap="round" /><path d="M 0.5 125.5 L 6.5 125.5" style="stroke:#000000;stroke-opacity:1; stroke-width: 1; stroke-dasharray: none; stroke-linecap: butt; stroke-linejoin: miter; stroke-miterlimit: 10; fill: none; fill-rule: nonzero; opacity: 1" transform=" matrix(1 0 0 1 93 40) " stroke-linecap="round" /><path d="M 0.5 115.5 L 0.5 115.5 L 530.5 115.5" style="stroke:#000000;stroke-opacity:1; stroke-opacity: 0.15; stroke-width: 1; stroke-dasharray: none; stroke-linecap: butt; stroke-linejoin: miter; stroke-miterlimit: 10; fill: none; fill-rule: nonzero; opacity: 1" transform=" matrix(1 0 0 1 99 40) " stroke-linecap="round" /><path d="M 0.5 144.5 L 6.5 144.5" style="stroke:#000000;stroke-opacity:1; stroke-width: 1; stroke-dasharray: none; stroke-linecap: butt; stroke-linejoin: miter; stroke-miterlimit: 10; fill: none; fill-rule: nonzero; opacity: 1" transform=" matrix(1 0 0 1 93 40) " stroke-linecap="round" /><path d="M 0.5 134.5 L 0.5 134.5 L 530.5 134.5" style="stroke:#000000;stroke-opacity:1; stroke-opacity: 0.15; stroke-width: 1; stroke-dasharray: none; stroke-linecap: butt; stroke-linejoin: miter; stroke-miterlimit: 10; fill: none; fill-rule: nonzero; opacity: 1" transform=" matrix(1 0 0 1 99 40) " stroke-linecap="round" /><path d="M 0.5 163.5 L 6.5 163.5" style="stroke:#000000;stroke-opacity:1; stroke-width: 1; stroke-dasharray: none; stroke-linecap: butt; stroke-linejoin: miter; stroke-miterlimit: 10; fill: none; fill-rule: nonzero; opacity: 1" transform=" matrix(1 0 0 1 93 40) " stroke-linecap="round" /><path d="M 0.5 153.5 L 0.5 153.5 L 530.5 153.5" style="stroke:#000000;stroke-opacity:1; stroke-opacity: 0.15; stroke-width: 1; stroke-dasharray: none; stroke-linecap: butt; stroke-linejoin: miter; stroke-miterlimit: 10; fill: none; fill-rule: nonzero; opacity: 1" transform=" matrix(1 0 0 1 99 40) " stroke-linecap="round" /><path d="M 0.5 182.5 L 6.5 182.5" style="stroke:#000000;stroke-opacity:1; stroke-width: 1; stroke-dasharray: none; stroke-linecap: butt; stroke-linejoin: miter; stroke-miterlimit: 10; fill: none; fill-rule: nonzero; opacity: 1" transform=" matrix(1 0 0 1 93 40) " stroke-linecap="round" /><path d="M 0.5 172.5 L 0.5 172.5 L 530.5 172.5" style="stroke:#000000;stroke-opacity:1; stroke-opacity: 0.15; stroke-width: 1; stroke-dasharray: none; stroke-linecap: butt; stroke-linejoin: miter; stroke-miterlimit: 10; fill: none; fill-rule: nonzero; opacity: 1" transform=" matrix(1 0 0 1 99 40) " stroke-linecap="round" /><path d="M 0.5 201.5 L 6.5 201.5" style="stroke:#000000;stroke-opacity:1; stroke-width: 1; stroke-dasharray: none; stroke-linecap: butt; stroke-linejoin: miter; stroke-miterlimit: 10; fill: none; fill-rule: nonzero; opacity: 1" transform=" matrix(1 0 0 1 93 40) " stroke-linecap="round" /><path d="M 0.5 191.5 L 0.5 191.5 L 530.5 191.5" style="stroke:#000000;stroke-opacity:1; stroke-opacity: 0.15; stroke-width: 1; stroke-dasharray: none; stroke-linecap: butt; stroke-linejoin: miter; stroke-miterlimit: 10; fill: none; fill-rule: nonzero; opacity: 1" transform=" matrix(1 0 0 1 99 40) " stroke-linecap="round" /><path d="M 0.5 220.5 L 6.5 220.5" style="stroke:#000000;stroke-opacity:1; stroke-width: 1; stroke-dasharray: none; stroke-linecap: butt; stroke-linejoin: miter; stroke-miterlimit: 10; fill: none; fill-rule: nonzero; opacity: 1" transform=" matrix(1 0 0 1 93 40) " stroke-linecap="round" /><path d="M 0.5 210.5 L 0.5 210.5 L 530.5 210.5" style="stroke:#000000;stroke-opacity:1; stroke-opacity: 0.15; stroke-width: 1; stroke-dasharray: none; stroke-linecap: butt; stroke-linejoin: miter; stroke-miterlimit: 10; fill: none; fill-rule: nonzero; opacity: 1" transform=" matrix(1 0 0 1 99 40) " stroke-linecap="round" /><path d="M 0.5 240.5 L 6.5 240.5" style="stroke:#000000;stroke-opacity:1; stroke-width: 1; stroke-dasharray: none; stroke-linecap: butt; stroke-linejoin: miter; stroke-miterlimit: 10; fill: none; fill-rule: nonzero; opacity: 1" transform=" matrix(1 0 0 1 93 40) " stroke-linecap="round" /><path d="M 0.5 230.5 L 0.5 230.5 L 530.5 230.5" style="stroke:#000000;stroke-opacity:1; stroke-opacity: 0.15; stroke-width: 1; stroke-dasharray: none; stroke-linecap: butt; stroke-linejoin: miter; stroke-miterlimit: 10; fill: none; fill-rule: nonzero; opacity: 1" transform=" matrix(1 0 0 1 99 40) " stroke-linecap="round" /><path d="M 0.5 259.5 L 6.5 259.5" style="stroke:#000000;stroke-opacity:1; stroke-width: 1; stroke-dasharray: none; stroke-linecap: butt; stroke-linejoin: miter; stroke-miterlimit: 10; fill: none; fill-rule: nonzero; opacity: 1" transform=" matrix(1 0 0 1 93 40) " stroke-linecap="round" /><path d="M 0.5 249.5 L 0.5 249.5 L 530.5 249.5" style="stroke:#000000;stroke-opacity:1; stroke-opacity: 0.15; stroke-width: 1; stroke-dasharray: none; stroke-linecap: butt; stroke-linejoin: miter; stroke-miterlimit: 10; fill: none; fill-rule: nonzero; opacity: 1" transform=" matrix(1 0 0 1 99 40) " stroke-linecap="round" /><path d="M 0.5 278.5 L 6.5 278.5" style="stroke:#000000;stroke-opacity:1; stroke-width: 1; stroke-dasharray: none; stroke-linecap: butt; stroke-linejoin: miter; stroke-miterlimit: 10; fill: none; fill-rule: nonzero; opacity: 1" transform=" matrix(1 0 0 1 93 40) " stroke-linecap="round" /><path d="M 0.5 268.5 L 0.5 268.5 L 530.5 268.5" style="stroke:#000000;stroke-opacity:1; stroke-opacity: 0.15; stroke-width: 1; stroke-dasharray: none; stroke-linecap: butt; stroke-linejoin: miter; stroke-miterlimit: 10; fill: none; fill-rule: nonzero; opacity: 1" transform=" matrix(1 0 0 1 99 40) " stroke-linecap="round" /><path d="M 0.5 297.5 L 6.5 297.5" style="stroke:#000000;stroke-opacity:1; stroke-width: 1; stroke-dasharray: none; stroke-linecap: butt; stroke-linejoin: miter; stroke-miterlimit: 10; fill: none; fill-rule: nonzero; opacity: 1" transform=" matrix(1 0 0 1 93 40) " stroke-linecap="round" /><path d="M 0.5 287.5 L 0.5 287.5 L 530.5 287.5" style="stroke:#000000;stroke-opacity:1; stroke-opacity: 0.15; stroke-width: 1; stroke-dasharray: none; stroke-linecap: butt; stroke-linejoin: miter; stroke-miterlimit: 10; fill: none; fill-rule: nonzero; opacity: 1" transform=" matrix(1 0 0 1 99 40) " stroke-linecap="round" /><path d="M 0.5 316.5 L 6.5 316.5" style="stroke:#000000;stroke-opacity:1; stroke-width: 1; stroke-dasharray: none; stroke-linecap: butt; stroke-linejoin: miter; stroke-miterlimit: 10; fill: none; fill-rule: nonzero; opacity: 1" transform=" matrix(1 0 0 1 93 40) " stroke-linecap="round" /><path d="M 0.5 306.5 L 0.5 306.5 L 530.5 306.5" style="stroke:#000000;stroke-opacity:1; stroke-opacity: 0.15; stroke-width: 1; stroke-dasharray: none; stroke-linecap: butt; stroke-linejoin: miter; stroke-miterlimit: 10; fill: none; fill-rule: nonzero; opacity: 1" transform=" matrix(1 0 0 1 99 40) " stroke-linecap="round" /><path d="M 0.5 335.5 L 6.5 335.5" style="stroke:#000000;stroke-opacity:1; stroke-width: 1; stroke-dasharray: none; stroke-linecap: butt; stroke-linejoin: miter; stroke-miterlimit: 10; fill: none; fill-rule: nonzero; opacity: 1" transform=" matrix(1 0 0 1 93 40) " stroke-linecap="round" /><path d="M 0.5 325.5 L 0.5 325.5 L 530.5 325.5" style="stroke:#000000;stroke-opacity:1; stroke-opacity: 0.15; stroke-width: 1; stroke-dasharray: none; stroke-linecap: butt; stroke-linejoin: miter; stroke-miterlimit: 10; fill: none; fill-rule: nonzero; opacity: 1" transform=" matrix(1 0 0 1 99 40) " stroke-linecap="round" /><path d="M 0.5 354.5 L 6.5 354.5" style="stroke:#000000;stroke-opacity:1; stroke-width: 1; stroke-dasharray: none; stroke-linecap: butt; stroke-linejoin: miter; stroke-miterlimit: 10; fill: none; fill-rule: nonzero; opacity: 1" transform=" matrix(1 0 0 1 93 40) " stroke-linecap="round" /><path d="M 0.5 344.5 L 0.5 344.5 L 530.5 344.5" style="stroke:#000000;stroke-opacity:1; stroke-opacity: 0.15; stroke-width: 1; stroke-dasharray: none; stroke-linecap: butt; stroke-linejoin: miter; stroke-miterlimit: 10; fill: none; fill-rule: nonzero; opacity: 1" transform=" matrix(1 0 0 1 99 40) " stroke-linecap="round" /><path d="M 0.5 374.5 L 6.5 374.5" style="stroke:#000000;stroke-opacity:1; stroke-width: 1; stroke-dasharray: none; stroke-linecap: butt; stroke-linejoin: miter; stroke-miterlimit: 10; fill: none; fill-rule: nonzero; opacity: 1" transform=" matrix(1 0 0 1 93 40) " stroke-linecap="round" /><path d="M 0.5 364.5 L 0.5 364.5 L 530.5 364.5" style="stroke:#000000;stroke-opacity:1; stroke-opacity: 0.15; stroke-width: 1; stroke-dasharray: none; stroke-linecap: butt; stroke-linejoin: miter; stroke-miterlimit: 10; fill: none; fill-rule: nonzero; opacity: 1" transform=" matrix(1 0 0 1 99 40) " stroke-linecap="round" /><path d="M 0.5 393.5 L 6.5 393.5" style="stroke:#000000;stroke-opacity:1; stroke-width: 1; stroke-dasharray: none; stroke-linecap: butt; stroke-linejoin: miter; stroke-miterlimit: 10; fill: none; fill-rule: nonzero; opacity: 1" transform=" matrix(1 0 0 1 93 40) " stroke-linecap="round" /><path d="M 0.5 383.5 L 0.5 383.5 L 530.5 383.5" style="stroke:#000000;stroke-opacity:1; stroke-opacity: 0.15; stroke-width: 1; stroke-dasharray: none; stroke-linecap: butt; stroke-linejoin: miter; stroke-miterlimit: 10; fill: none; fill-rule: nonzero; opacity: 1" transform=" matrix(1 0 0 1 99 40) " stroke-linecap="round" /><path d="M 0.5 412.5 L 6.5 412.5" style="stroke:#000000;stroke-opacity:1; stroke-width: 1; stroke-dasharray: none; stroke-linecap: butt; stroke-linejoin: miter; stroke-miterlimit: 10; fill: none; fill-rule: nonzero; opacity: 1" transform=" matrix(1 0 0 1 93 40) " stroke-linecap="round" /><path d="M 0.5 402.5 L 0.5 402.5 L 530.5 402.5" style="stroke:#000000;stroke-opacity:1; stroke-opacity: 0.15; stroke-width: 1; stroke-dasharray: none; stroke-linecap: butt; stroke-linejoin: miter; stroke-miterlimit: 10; fill: none; fill-rule: nonzero; opacity: 1" transform=" matrix(1 0 0 1 99 40) " stroke-linecap="round" /><path d="M 0.5 431.5 L 6.5 431.5" style="stroke:#000000;stroke-opacity:1; stroke-width: 1; stroke-dasharray: none; stroke-linecap: butt; stroke-linejoin: miter; stroke-miterlimit: 10; fill: none; fill-rule: nonzero; opacity: 1" transform=" matrix(1 0 0 1 93 40) " stroke-linecap="round" /><path d="M 0.5 421.5 L 0.5 421.5 L 530.5 421.5" style="stroke:#000000;stroke-opacity:1; stroke-opacity: 0.15; stroke-width: 1; stroke-dasharray: none; stroke-linecap: butt; stroke-linejoin: miter; stroke-miterlimit: 10; fill: none; fill-rule: nonzero; opacity: 1" transform=" matrix(1 0 0 1 99 40) " stroke-linecap="round" /><path d="M 0.5 450.5 L 6.5 450.5" style="stroke:#000000;stroke-opacity:1; stroke-width: 1; stroke-dasharray: none; stroke-linecap: butt; stroke-linejoin: miter; stroke-miterlimit: 10; fill: none; fill-rule: nonzero; opacity: 1" transform=" matrix(1 0 0 1 93 40) " stroke-linecap="round" /><path d="M 0.5 440.5 L 0.5 440.5 L 530.5 440.5" style="stroke:#000000;stroke-opacity:1; stroke-opacity: 0.15; stroke-width: 1; stroke-dasharray: none; stroke-linecap: butt; stroke-linejoin: miter; stroke-miterlimit: 10; fill: none; fill-rule: nonzero; opacity: 1" transform=" matrix(1 0 0 1 99 40) " stroke-linecap="round" /><path d="M 0.5 469.5 L 6.5 469.5" style="stroke:#000000;stroke-opacity:1; stroke-width: 1; stroke-dasharray: none; stroke-linecap: butt; stroke-linejoin: miter; stroke-miterlimit: 10; fill: none; fill-rule: nonzero; opacity: 1" transform=" matrix(1 0 0 1 93 40) " stroke-linecap="round" /><path d="M 0.5 459.5 L 0.5 459.5 L 530.5 459.5" style="stroke:#000000;stroke-opacity:1; stroke-opacity: 0.15; stroke-width: 1; stroke-dasharray: none; stroke-linecap: butt; stroke-linejoin: miter; stroke-miterlimit: 10; fill: none; fill-rule: nonzero; opacity: 1" transform=" matrix(1 0 0 1 99 40) " stroke-linecap="round" /><path d="M 0.5 479.5 L 0.5 479.5 L 530.5 479.5" style="stroke:#000000;stroke-opacity:1; stroke-opacity: 0.15; stroke-width: 1; stroke-dasharray: none; stroke-linecap: butt; stroke-linejoin: miter; stroke-miterlimit: 10; fill: none; fill-rule: nonzero; opacity: 1" transform=" matrix(1 0 0 1 99 40) " stroke-linecap="round" /><path d="M 99.5 0.5 L 99.5 5.5" style="stroke:#000000;stroke-opacity:1; stroke-width: 1; stroke-dasharray: none; stroke-linecap: butt; stroke-linejoin: miter; stroke-miterlimit: 10; fill: none; fill-rule: nonzero; opacity: 1" transform=" matrix(1 0 0 1 99 519) " stroke-linecap="round" /><path d="M 99.5 479.5 L 99.5 479.5 L 99.5 0.5" style="stroke:#000000;stroke-opacity:1; stroke-opacity: 0.15; stroke-width: 1; stroke-dasharray: none; stroke-linecap: butt; stroke-linejoin: miter; stroke-miterlimit: 10; fill: none; fill-rule: nonzero; opacity: 1" transform=" matrix(1 0 0 1 99 40) " stroke-linecap="round" /><path d="M 265.5 0.5 L 265.5 5.5" style="stroke:#000000;stroke-opacity:1; stroke-width: 1; stroke-dasharray: none; stroke-linecap: butt; stroke-linejoin: miter; stroke-miterlimit: 10; fill: none; fill-rule: nonzero; opacity: 1" transform=" matrix(1 0 0 1 99 519) " stroke-linecap="round" /><path d="M 265.5 479.5 L 265.5 479.5 L 265.5 0.5" style="stroke:#000000;stroke-opacity:1; stroke-opacity: 0.15; stroke-width: 1; stroke-dasharray: none; stroke-linecap: butt; stroke-linejoin: miter; stroke-miterlimit: 10; fill: none; fill-rule: nonzero; opacity: 1" transform=" matrix(1 0 0 1 99 40) " stroke-linecap="round" /><path d="M 431.5 0.5 L 431.5 5.5" style="stroke:#000000;stroke-opacity:1; stroke-width: 1; stroke-dasharray: none; stroke-linecap: butt; stroke-linejoin: miter; stroke-miterlimit: 10; fill: none; fill-rule: nonzero; opacity: 1" transform=" matrix(1 0 0 1 99 519) " stroke-linecap="round" /><path d="M 431.5 479.5 L 431.5 479.5 L 431.5 0.5" style="stroke:#000000;stroke-opacity:1; stroke-opacity: 0.15; stroke-width: 1; stroke-dasharray: none; stroke-linecap: butt; stroke-linejoin: miter; stroke-miterlimit: 10; fill: none; fill-rule: nonzero; opacity: 1" transform=" matrix(1 0 0 1 99 40) " stroke-linecap="round" /><path d="M 0.5 0.5 L 0.5 10.5 L 232.5 10.5 L 232.5 0.5 L 0.5 0.5 Z" style="stroke:#FFFFFF;stroke-opacity:1; stroke-width: 1; stroke-dasharray: none; stroke-linecap: butt; stroke-linejoin: miter; stroke-miterlimit: 10;fill:#FF6600;fill-opacity:1; fill-opacity: 0.85; fill-rule: nonzero; opacity: 1" transform=" matrix(1 0 0 1 99 45) " stroke-linecap="round" /><path d="M 0.5 0.5 L 0.5 10.5 L 199.5 10.5 L 199.5 0.5 L 0.5 0.5 Z" style="stroke:#FFFFFF;stroke-opacity:1; stroke-width: 1; stroke-dasharray: none; stroke-linecap: butt; stroke-linejoin: miter; stroke-miterlimit: 10;fill:#FF6D00;fill-opacity:1; fill-opacity: 0.85; fill-rule: nonzero; opacity: 1" transform=" matrix(1 0 0 1 397 45) " stroke-linecap="round" /><path d="M 0.5 0.5 L 0.5 10.5 L 431.5 10.5 L 431.5 0.5 L 0.5 0.5 Z" style="stroke:#FFFFFF;stroke-opacity:1; stroke-width: 1; stroke-dasharray: none; stroke-linecap: butt; stroke-linejoin: miter; stroke-miterlimit: 10;fill:#FCD202;fill-opacity:1; fill-opacity: 0.85; fill-rule: nonzero; opacity: 1" transform=" matrix(1 0 0 1 165 64) " stroke-linecap="round" /><path d="M 0.5 0.5 L 0.5 10.5 L 431.5 10.5 L 431.5 0.5 L 0.5 0.5 Z" style="stroke:#FFFFFF;stroke-opacity:1; stroke-width: 1; stroke-dasharray: none; stroke-linecap: butt; stroke-linejoin: miter; stroke-miterlimit: 10;fill:#B0DE09;fill-opacity:1; fill-opacity: 0.85; fill-rule: nonzero; opacity: 1" transform=" matrix(1 0 0 1 165 83) " stroke-linecap="round" /><path d="M 0.5 0.5 L 0.5 10.5 L 166.5 10.5 L 166.5 0.5 L 0.5 0.5 Z" style="stroke:#FFFFFF;stroke-opacity:1; stroke-width: 1; stroke-dasharray: none; stroke-linecap: butt; stroke-linejoin: miter; stroke-miterlimit: 10;fill:#0D8ECF;fill-opacity:1; fill-opacity: 0.85; fill-rule: nonzero; opacity: 1" transform=" matrix(1 0 0 1 165 102) " stroke-linecap="round" /><path d="M 0.5 0.5 L 0.5 10.5 L 99.5 10.5 L 99.5 0.5 L 0.5 0.5 Z" style="stroke:#FFFFFF;stroke-opacity:1; stroke-width: 1; stroke-dasharray: none; stroke-linecap: butt; stroke-linejoin: miter; stroke-miterlimit: 10;fill:#0E98DD;fill-opacity:1; fill-opacity: 0.85; fill-rule: nonzero; opacity: 1" transform=" matrix(1 0 0 1 497 102) " stroke-linecap="round" /><path d="M 0.5 0.5 L 0.5 10.5 L 431.5 10.5 L 431.5 0.5 L 0.5 0.5 Z" style="stroke:#FFFFFF;stroke-opacity:1; stroke-width: 1; stroke-dasharray: none; stroke-linecap: butt; stroke-linejoin: miter; stroke-miterlimit: 10;fill:#2A0CD0;fill-opacity:1; fill-opacity: 0.85; fill-rule: nonzero; opacity: 1" transform=" matrix(1 0 0 1 165 121) " stroke-linecap="round" /><path d="M 0.5 0.5 L 0.5 10.5 L 66.5 10.5 L 66.5 0.5 L 0.5 0.5 Z" style="stroke:#FFFFFF;stroke-opacity:1; stroke-width: 1; stroke-dasharray: none; stroke-linecap: butt; stroke-linejoin: miter; stroke-miterlimit: 10;fill:#CD0D74;fill-opacity:1; fill-opacity: 0.85; fill-rule: nonzero; opacity: 1" transform=" matrix(1 0 0 1 530 140) " stroke-linecap="round" /><path d="M 0.5 0.5 L 0.5 10.5 L 33.5 10.5 L 33.5 0.5 L 0.5 0.5 Z" style="stroke:#FFFFFF;stroke-opacity:1; stroke-width: 1; stroke-dasharray: none; stroke-linecap: butt; stroke-linejoin: miter; stroke-miterlimit: 10;fill:#CC0000;fill-opacity:1; fill-opacity: 0.85; fill-rule: nonzero; opacity: 1" transform=" matrix(1 0 0 1 232 160) " stroke-linecap="round" /><path d="M 0.5 0.5 L 0.5 10.5 L 99.5 10.5 L 99.5 0.5 L 0.5 0.5 Z" style="stroke:#FFFFFF;stroke-opacity:1; stroke-width: 1; stroke-dasharray: none; stroke-linecap: butt; stroke-linejoin: miter; stroke-miterlimit: 10;fill:#DA0000;fill-opacity:1; fill-opacity: 0.85; fill-rule: nonzero; opacity: 1" transform=" matrix(1 0 0 1 497 160) " stroke-linecap="round" /><path d="M 0.5 0.5 L 0.5 10.5 L 364.5 10.5 L 364.5 0.5 L 0.5 0.5 Z" style="stroke:#FFFFFF;stroke-opacity:1; stroke-width: 1; stroke-dasharray: none; stroke-linecap: butt; stroke-linejoin: miter; stroke-miterlimit: 10;fill:#00CC00;fill-opacity:1; fill-opacity: 0.85; fill-rule: nonzero; opacity: 1" transform=" matrix(1 0 0 1 232 179) " stroke-linecap="round" /><path d="M 0.5 0.5 L 0.5 10.5 L 166.5 10.5 L 166.5 0.5 L 0.5 0.5 Z" style="stroke:#FFFFFF;stroke-opacity:1; stroke-width: 1; stroke-dasharray: none; stroke-linecap: butt; stroke-linejoin: miter; stroke-miterlimit: 10;fill:#0000CC;fill-opacity:1; fill-opacity: 0.85; fill-rule: nonzero; opacity: 1" transform=" matrix(1 0 0 1 298 198) " stroke-linecap="round" /><path d="M 0.5 0.5 L 0.5 10.5 L 398.5 10.5 L 398.5 0.5 L 0.5 0.5 Z" style="stroke:#FFFFFF;stroke-opacity:1; stroke-width: 1; stroke-dasharray: none; stroke-linecap: butt; stroke-linejoin: miter; stroke-miterlimit: 10;fill:#DDDDDD;fill-opacity:1; fill-opacity: 0.85; fill-rule: nonzero; opacity: 1" transform=" matrix(1 0 0 1 232 217) " stroke-linecap="round" /><path d="M 0.5 0.5 L 0.5 10.5 L 33.5 10.5 L 33.5 0.5 L 0.5 0.5 Z" style="stroke:#FFFFFF;stroke-opacity:1; stroke-width: 1; stroke-dasharray: none; stroke-linecap: butt; stroke-linejoin: miter; stroke-miterlimit: 10;fill:#999999;fill-opacity:1; fill-opacity: 0.85; fill-rule: nonzero; opacity: 1" transform=" matrix(1 0 0 1 331 236) " stroke-linecap="round" /><path d="M 0.5 0.5 L 0.5 10.5 L 33.5 10.5 L 33.5 0.5 L 0.5 0.5 Z" style="stroke:#FFFFFF;stroke-opacity:1; stroke-width: 1; stroke-dasharray: none; stroke-linecap: butt; stroke-linejoin: miter; stroke-miterlimit: 10;fill:#A4A4A4;fill-opacity:1; fill-opacity: 0.85; fill-rule: nonzero; opacity: 1" transform=" matrix(1 0 0 1 596 236) " stroke-linecap="round" /><path d="M 0.5 0.5 L 0.5 10.5 L 33.5 10.5 L 33.5 0.5 L 0.5 0.5 Z" style="stroke:#FFFFFF;stroke-opacity:1; stroke-width: 1; stroke-dasharray: none; stroke-linecap: butt; stroke-linejoin: miter; stroke-miterlimit: 10;fill:#333333;fill-opacity:1; fill-opacity: 0.85; fill-rule: nonzero; opacity: 1" transform=" matrix(1 0 0 1 331 255) " stroke-linecap="round" /><path d="M 0.5 0.5 L 0.5 10.5 L 99.5 10.5 L 99.5 0.5 L 0.5 0.5 Z" style="stroke:#FFFFFF;stroke-opacity:1; stroke-width: 1; stroke-dasharray: none; stroke-linecap: butt; stroke-linejoin: miter; stroke-miterlimit: 10;fill:#373737;fill-opacity:1; fill-opacity: 0.85; fill-rule: nonzero; opacity: 1" transform=" matrix(1 0 0 1 530 255) " stroke-linecap="round" /><path d="M 0.5 0.5 L 0.5 10.5 L 33.5 10.5 L 33.5 0.5 L 0.5 0.5 Z" style="stroke:#FFFFFF;stroke-opacity:1; stroke-width: 1; stroke-dasharray: none; stroke-linecap: butt; stroke-linejoin: miter; stroke-miterlimit: 10;fill:#990000;fill-opacity:1; fill-opacity: 0.85; fill-rule: nonzero; opacity: 1" transform=" matrix(1 0 0 1 331 275) " stroke-linecap="round" /><path d="M 0.5 0.5 L 0.5 10.5 L 33.5 10.5 L 33.5 0.5 L 0.5 0.5 Z" style="stroke:#FFFFFF;stroke-opacity:1; stroke-width: 1; stroke-dasharray: none; stroke-linecap: butt; stroke-linejoin: miter; stroke-miterlimit: 10;fill:#A40000;fill-opacity:1; fill-opacity: 0.85; fill-rule: nonzero; opacity: 1" transform=" matrix(1 0 0 1 563 275) " stroke-linecap="round" /><path d="M 0.5 0.5 L 0.5 10.5 L 33.5 10.5 L 33.5 0.5 L 0.5 0.5 Z" style="stroke:#FFFFFF;stroke-opacity:1; stroke-width: 1; stroke-dasharray: none; stroke-linecap: butt; stroke-linejoin: miter; stroke-miterlimit: 10;fill:#F52F60;fill-opacity:1; fill-opacity: 0.85; fill-rule: nonzero; opacity: 1" transform=" matrix(1 0 0 1 331 294) " stroke-linecap="round" /><path d="M 0.5 0.5 L 0.5 10.5 L 232.5 10.5 L 232.5 0.5 L 0.5 0.5 Z" style="stroke:#FFFFFF;stroke-opacity:1; stroke-width: 1; stroke-dasharray: none; stroke-linecap: butt; stroke-linejoin: miter; stroke-miterlimit: 10;fill:#75A944;fill-opacity:1; fill-opacity: 0.85; fill-rule: nonzero; opacity: 1" transform=" matrix(1 0 0 1 364 313) " stroke-linecap="round" /><path d="M 0.5 0.5 L 0.5 10.5 L 33.5 10.5 L 33.5 0.5 L 0.5 0.5 Z" style="stroke:#FFFFFF;stroke-opacity:1; stroke-width: 1; stroke-dasharray: none; stroke-linecap: butt; stroke-linejoin: miter; stroke-miterlimit: 10;fill:#91D443;fill-opacity:1; fill-opacity: 0.85; fill-rule: nonzero; opacity: 1" transform=" matrix(1 0 0 1 232 332) " stroke-linecap="round" /><path d="M 0.5 0.5 L 0.5 10.5 L 33.5 10.5 L 33.5 0.5 L 0.5 0.5 Z" style="stroke:#FFFFFF;stroke-opacity:1; stroke-width: 1; stroke-dasharray: none; stroke-linecap: butt; stroke-linejoin: miter; stroke-miterlimit: 10;fill:#9BE348;fill-opacity:1; fill-opacity: 0.85; fill-rule: nonzero; opacity: 1" transform=" matrix(1 0 0 1 331 332) " stroke-linecap="round" /><path d="M 0.5 0.5 L 0.5 10.5 L 33.5 10.5 L 33.5 0.5 L 0.5 0.5 Z" style="stroke:#FFFFFF;stroke-opacity:1; stroke-width: 1; stroke-dasharray: none; stroke-linecap: butt; stroke-linejoin: miter; stroke-miterlimit: 10;fill:#3557EB;fill-opacity:1; fill-opacity: 0.85; fill-rule: nonzero; opacity: 1" transform=" matrix(1 0 0 1 232 351) " stroke-linecap="round" /><path d="M 0.5 0.5 L 0.5 10.5 L 33.5 10.5 L 33.5 0.5 L 0.5 0.5 Z" style="stroke:#FFFFFF;stroke-opacity:1; stroke-width: 1; stroke-dasharray: none; stroke-linecap: butt; stroke-linejoin: miter; stroke-miterlimit: 10;fill:#395DFB;fill-opacity:1; fill-opacity: 0.85; fill-rule: nonzero; opacity: 1" transform=" matrix(1 0 0 1 331 351) " stroke-linecap="round" /><path d="M 0.5 0.5 L 0.5 10.5 L 199.5 10.5 L 199.5 0.5 L 0.5 0.5 Z" style="stroke:#FFFFFF;stroke-opacity:1; stroke-width: 1; stroke-dasharray: none; stroke-linecap: butt; stroke-linejoin: miter; stroke-miterlimit: 10;fill:#416AFF;fill-opacity:1; fill-opacity: 0.85; fill-rule: nonzero; opacity: 1" transform=" matrix(1 0 0 1 397 351) " stroke-linecap="round" /><path d="M 0.5 0.5 L 0.5 10.5 L 33.5 10.5 L 33.5 0.5 L 0.5 0.5 Z" style="stroke:#FFFFFF;stroke-opacity:1; stroke-width: 1; stroke-dasharray: none; stroke-linecap: butt; stroke-linejoin: miter; stroke-miterlimit: 10;fill:#F63C84;fill-opacity:1; fill-opacity: 0.85; fill-rule: nonzero; opacity: 1" transform=" matrix(1 0 0 1 232 370) " stroke-linecap="round" /><path d="M 0.5 0.5 L 0.5 10.5 L 33.5 10.5 L 33.5 0.5 L 0.5 0.5 Z" style="stroke:#FFFFFF;stroke-opacity:1; stroke-width: 1; stroke-dasharray: none; stroke-linecap: butt; stroke-linejoin: miter; stroke-miterlimit: 10;fill:#FF408D;fill-opacity:1; fill-opacity: 0.85; fill-rule: nonzero; opacity: 1" transform=" matrix(1 0 0 1 331 370) " stroke-linecap="round" /><path d="M 0.5 0.5 L 0.5 10.5 L 199.5 10.5 L 199.5 0.5 L 0.5 0.5 Z" style="stroke:#FFFFFF;stroke-opacity:1; stroke-width: 1; stroke-dasharray: none; stroke-linecap: butt; stroke-linejoin: miter; stroke-miterlimit: 10;fill:#FF49A1;fill-opacity:1; fill-opacity: 0.85; fill-rule: nonzero; opacity: 1" transform=" matrix(1 0 0 1 397 370) " stroke-linecap="round" /><path d="M 0.5 0.5 L 0.5 10.5 L 33.5 10.5 L 33.5 0.5 L 0.5 0.5 Z" style="stroke:#FFFFFF;stroke-opacity:1; stroke-width: 1; stroke-dasharray: none; stroke-linecap: butt; stroke-linejoin: miter; stroke-miterlimit: 10;fill:#194D2D;fill-opacity:1; fill-opacity: 0.85; fill-rule: nonzero; opacity: 1" transform=" matrix(1 0 0 1 331 389) " stroke-linecap="round" /><path d="M 0.5 0.5 L 0.5 10.5 L 99.5 10.5 L 99.5 0.5 L 0.5 0.5 Z" style="stroke:#FFFFFF;stroke-opacity:1; stroke-width: 1; stroke-dasharray: none; stroke-linecap: butt; stroke-linejoin: miter; stroke-miterlimit: 10;fill:#95FA08;fill-opacity:1; fill-opacity: 0.85; fill-rule: nonzero; opacity: 1" transform=" matrix(1 0 0 1 364 409) " stroke-linecap="round" /><path d="M 0.5 0.5 L 0.5 10.5 L 33.5 10.5 L 33.5 0.5 L 0.5 0.5 Z" style="stroke:#FFFFFF;stroke-opacity:1; stroke-width: 1; stroke-dasharray: none; stroke-linecap: butt; stroke-linejoin: miter; stroke-miterlimit: 10;fill:#AE65B9;fill-opacity:1; fill-opacity: 0.85; fill-rule: nonzero; opacity: 1" transform=" matrix(1 0 0 1 596 428) " stroke-linecap="round" /><path d="M 0.5 0.5 L 0.5 10.5 L 66.5 10.5 L 66.5 0.5 L 0.5 0.5 Z" style="stroke:#FFFFFF;stroke-opacity:1; stroke-width: 1; stroke-dasharray: none; stroke-linecap: butt; stroke-linejoin: miter; stroke-miterlimit: 10;fill:#DE6F28;fill-opacity:1; fill-opacity: 0.85; fill-rule: nonzero; opacity: 1" transform=" matrix(1 0 0 1 99 447) " stroke-linecap="round" /><path d="M 0.5 0.5 L 0.5 10.5 L 497.5 10.5 L 497.5 0.5 L 0.5 0.5 Z" style="stroke:#FFFFFF;stroke-opacity:1; stroke-width: 1; stroke-dasharray: none; stroke-linecap: butt; stroke-linejoin: miter; stroke-miterlimit: 10;fill:#43600F;fill-opacity:1; fill-opacity: 0.85; fill-rule: nonzero; opacity: 1" transform=" matrix(1 0 0 1 132 466) " stroke-linecap="round" /><path d="M 0.5 0.5 L 0.5 10.5 L 133.5 10.5 L 133.5 0.5 L 0.5 0.5 Z" style="stroke:#FFFFFF;stroke-opacity:1; stroke-width: 1; stroke-dasharray: none; stroke-linecap: butt; stroke-linejoin: miter; stroke-miterlimit: 10;fill:#588BA6;fill-opacity:1; fill-opacity: 0.85; fill-rule: nonzero; opacity: 1" transform=" matrix(1 0 0 1 497 485) " stroke-linecap="round" /><path d="M 0.5 0.5 L 0.5 10.5 L 33.5 10.5 L 33.5 0.5 L 0.5 0.5 Z" style="stroke:#FFFFFF;stroke-opacity:1; stroke-width: 1; stroke-dasharray: none; stroke-linecap: butt; stroke-linejoin: miter; stroke-miterlimit: 10;fill:#08611C;fill-opacity:1; fill-opacity: 0.85; fill-rule: nonzero; opacity: 1" transform=" matrix(1 0 0 1 596 504) " stroke-linecap="round" /><path d="M 0.5 0.5 L 530.5 0.5" style="stroke:#000000;stroke-opacity:1; stroke-opacity: 0; stroke-width: 1; stroke-dasharray: none; stroke-linecap: butt; stroke-linejoin: miter; stroke-miterlimit: 10; fill: none; fill-rule: nonzero; opacity: 1" transform=" matrix(1 0 0 1 0 20) " stroke-linecap="round" /><path d="M 0.5 0.5 L 0.5 479.5" style="stroke:#000000;stroke-opacity:1; stroke-width: 1; stroke-dasharray: none; stroke-linecap: butt; stroke-linejoin: miter; stroke-miterlimit: 10; fill: none; fill-rule: nonzero; opacity: 1" transform=" matrix(1 0 0 1 99 40) " stroke-linecap="round" /><path d="M 0.5 0.5 L 530.5 0.5" style="stroke:#000000;stroke-opacity:1; stroke-width: 1; stroke-dasharray: none; stroke-linecap: butt; stroke-linejoin: miter; stroke-miterlimit: 10; fill: none; fill-rule: nonzero; opacity: 1" transform=" matrix(1 0 0 1 99 519) " stroke-linecap="round" /><g  clip-path="url(#AmChartsEl-4)" ><path d="M 0.5 0.5 L 0.5 0.5 L 0.5 479.5" style="stroke:#55BB76;stroke-opacity:1; stroke-opacity: 0; stroke-width: 1; stroke-dasharray: none; stroke-linecap: butt; stroke-linejoin: miter; stroke-miterlimit: 10; fill: none; fill-rule: nonzero; opacity: 0" transform=" matrix(1 0 0 1 99 40) " stroke-linecap="round" /></g><g  clip-path="url(#AmChartsEl-4)" ><path d="M 0.5 0.5 L 530.5 0.5 L 530.5 0.5" style="stroke:#55BB76;stroke-opacity:1; stroke-opacity: 0; stroke-width: 1; stroke-dasharray: none; stroke-linecap: butt; stroke-linejoin: miter; stroke-miterlimit: 10; fill: none; fill-rule: nonzero; opacity: 0" transform=" matrix(1 0 0 1 99 40) " stroke-linecap="round" /></g><rect x="0.5" y="0.5" rx="0" ry="0" width="531" height="20" style="stroke:#D4D4D4;stroke-opacity:1; stroke-width: 1; stroke-dasharray: none; stroke-linecap: butt; stroke-linejoin: miter; stroke-miterlimit: 10;fill:#D4D4D4;fill-opacity:1; fill-rule: nonzero; opacity: 1" transform=" matrix(1 0 0 1 99 20) "/><rect x="0.5" y="0.5" rx="0" ry="0" width="531" height="21" style="stroke:#EFEFEF;stroke-opacity:1; stroke-width: 0; stroke-dasharray: none; stroke-linecap: butt; stroke-linejoin: miter; stroke-miterlimit: 10;fill:#EFEFEF;fill-opacity:1; fill-rule: nonzero; opacity: 1" transform=" matrix(1 0 0 1 99 20) "/><path d="M 99.5 20.5 L 99.5 20.5 L 99.5 0.5" style="stroke:#FFFFFF;stroke-opacity:1; stroke-opacity: 0.7; stroke-width: 1; stroke-dasharray: none; stroke-linecap: butt; stroke-linejoin: miter; stroke-miterlimit: 10; fill: none; fill-rule: nonzero; opacity: 1" transform=" matrix(1 0 0 1 99 20) " stroke-linecap="round" /><path d="M 265.5 20.5 L 265.5 20.5 L 265.5 0.5" style="stroke:#FFFFFF;stroke-opacity:1; stroke-opacity: 0.7; stroke-width: 1; stroke-dasharray: none; stroke-linecap: butt; stroke-linejoin: miter; stroke-miterlimit: 10; fill: none; fill-rule: nonzero; opacity: 1" transform=" matrix(1 0 0 1 99 20) " stroke-linecap="round" /><path d="M 431.5 20.5 L 431.5 20.5 L 431.5 0.5" style="stroke:#FFFFFF;stroke-opacity:1; stroke-opacity: 0.7; stroke-width: 1; stroke-dasharray: none; stroke-linecap: butt; stroke-linejoin: miter; stroke-miterlimit: 10; fill: none; fill-rule: nonzero; opacity: 1" transform=" matrix(1 0 0 1 99 20) " stroke-linecap="round" /><g transform=" matrix(1 0 0 1 201 28.5) "><text xml:space="preserve" font-family="Verdana" font-size="11" font-weight="normal" style="stroke: none; stroke-width: 1; stroke-dasharray: none; stroke-linecap: butt; stroke-linejoin: miter; stroke-miterlimit: 10;fill:#FFFFFF;fill-opacity:1; fill-rule: nonzero; opacity: 1; white-space: pre" ><tspan x="0" y="7.48" fill="rgba(255,255,255,1)">2005</tspan></text></g><g transform=" matrix(1 0 0 1 367 28.5) "><text xml:space="preserve" font-family="Verdana" font-size="11" font-weight="normal" style="stroke: none; stroke-width: 1; stroke-dasharray: none; stroke-linecap: butt; stroke-linejoin: miter; stroke-miterlimit: 10;fill:#FFFFFF;fill-opacity:1; fill-rule: nonzero; opacity: 1; white-space: pre" ><tspan x="0" y="7.48" fill="rgba(255,255,255,1)">2010</tspan></text></g><g transform=" matrix(1 0 0 1 533 28.5) "><text xml:space="preserve" font-family="Verdana" font-size="11" font-weight="normal" style="stroke: none; stroke-width: 1; stroke-dasharray: none; stroke-linecap: butt; stroke-linejoin: miter; stroke-miterlimit: 10;fill:#FFFFFF;fill-opacity:1; fill-rule: nonzero; opacity: 1; white-space: pre" ><tspan x="0" y="7.48" fill="rgba(255,255,255,1)">2015</tspan></text></g><rect x="0.5" y="0.5" rx="0" ry="0" width="531" height="20" style="stroke:#000000;stroke-opacity:1; stroke-opacity: 0.005; stroke-width: 0; stroke-dasharray: none; stroke-linecap: butt; stroke-linejoin: miter; stroke-miterlimit: 10;fill:#000000;fill-opacity:1; fill-opacity: 0.005; fill-rule: nonzero; opacity: 1" transform=" matrix(1 0 0 1 99 20) "/><rect x="0" y="0.5" rx="0" ry="0" width="531" height="20" style="stroke:#000000;stroke-opacity:1; stroke-opacity: 0.005; stroke-width: 0; stroke-dasharray: none; stroke-linecap: butt; stroke-linejoin: miter; stroke-miterlimit: 10;fill:#000000;fill-opacity:1; fill-opacity: 0.005; fill-rule: nonzero; opacity: 1" transform=" matrix(1 0 0 1 99 20) "/><rect x="0.5" y="0.5" rx="0" ry="0" width="25" height="20" style="stroke:#000000;stroke-opacity:1; stroke-opacity: 0.005; stroke-width: 0; stroke-dasharray: none; stroke-linecap: butt; stroke-linejoin: miter; stroke-miterlimit: 10;fill:#000000;fill-opacity:1; fill-opacity: 0.005; fill-rule: nonzero; opacity: 1" transform=" matrix(1 0 0 1 87 21) "/><rect x="0.5" y="0.5" rx="0" ry="0" width="25" height="20" style="stroke:#000000;stroke-opacity:1; stroke-opacity: 0.005; stroke-width: 0; stroke-dasharray: none; stroke-linecap: butt; stroke-linejoin: miter; stroke-miterlimit: 10;fill:#000000;fill-opacity:1; fill-opacity: 0.005; fill-rule: nonzero; opacity: 1" transform=" matrix(1 0 0 1 618 21) "/><g transform=" matrix(1 0 0 1 87 48.58) "><text xml:space="preserve" font-family="Verdana" font-size="11" font-weight="normal" style="stroke: none; stroke-width: 1; stroke-dasharray: none; stroke-linecap: butt; stroke-linejoin: miter; stroke-miterlimit: 10;fill:#000000;fill-opacity:1; fill-rule: nonzero; opacity: 1; white-space: pre" ><tspan x="-31.44" y="7.48" fill="rgba(0,0,0,1)">HTML</tspan></text></g><g transform=" matrix(1 0 0 1 87 67.58) "><text xml:space="preserve" font-family="Verdana" font-size="11" font-weight="normal" style="stroke: none; stroke-width: 1; stroke-dasharray: none; stroke-linecap: butt; stroke-linejoin: miter; stroke-miterlimit: 10;fill:#000000;fill-opacity:1; fill-rule: nonzero; opacity: 1; white-space: pre" ><tspan x="-23.6" y="7.48" fill="rgba(0,0,0,1)">CSS</tspan></text></g><g transform=" matrix(1 0 0 1 87 86.58) "><text xml:space="preserve" font-family="Verdana" font-size="11" font-weight="normal" style="stroke: none; stroke-width: 1; stroke-dasharray: none; stroke-linecap: butt; stroke-linejoin: miter; stroke-miterlimit: 10;fill:#000000;fill-opacity:1; fill-rule: nonzero; opacity: 1; white-space: pre" ><tspan x="-57.57" y="7.48" fill="rgba(0,0,0,1)">JavaScript</tspan></text></g><g transform=" matrix(1 0 0 1 87 105.58) "><text xml:space="preserve" font-family="Verdana" font-size="11" font-weight="normal" style="stroke: none; stroke-width: 1; stroke-dasharray: none; stroke-linecap: butt; stroke-linejoin: miter; stroke-miterlimit: 10;fill:#000000;fill-opacity:1; fill-rule: nonzero; opacity: 1; white-space: pre" ><tspan x="-48.21" y="7.48" fill="rgba(0,0,0,1)">VBScript</tspan></text></g><g transform=" matrix(1 0 0 1 87 124.58) "><text xml:space="preserve" font-family="Verdana" font-size="11" font-weight="normal" style="stroke: none; stroke-width: 1; stroke-dasharray: none; stroke-linecap: butt; stroke-linejoin: miter; stroke-miterlimit: 10;fill:#000000;fill-opacity:1; fill-rule: nonzero; opacity: 1; white-space: pre" ><tspan x="-23.93" y="7.48" fill="rgba(0,0,0,1)">XML</tspan></text></g><g transform=" matrix(1 0 0 1 87 143.57999999999998) "><text xml:space="preserve" font-family="Verdana" font-size="11" font-weight="normal" style="stroke: none; stroke-width: 1; stroke-dasharray: none; stroke-linecap: butt; stroke-linejoin: miter; stroke-miterlimit: 10;fill:#000000;fill-opacity:1; fill-rule: nonzero; opacity: 1; white-space: pre" ><tspan x="-22.19" y="7.48" fill="rgba(0,0,0,1)">BAT</tspan></text></g><g transform=" matrix(1 0 0 1 87 163.57999999999998) "><text xml:space="preserve" font-family="Verdana" font-size="11" font-weight="normal" style="stroke: none; stroke-width: 1; stroke-dasharray: none; stroke-linecap: butt; stroke-linejoin: miter; stroke-miterlimit: 10;fill:#000000;fill-opacity:1; fill-rule: nonzero; opacity: 1; white-space: pre" ><tspan x="-66.35" y="7.48" fill="rgba(0,0,0,1)">Visual Basic</tspan></text></g><g transform=" matrix(1 0 0 1 87 182.58) "><text xml:space="preserve" font-family="Verdana" font-size="11" font-weight="normal" style="stroke: none; stroke-width: 1; stroke-dasharray: none; stroke-linecap: butt; stroke-linejoin: miter; stroke-miterlimit: 10;fill:#000000;fill-opacity:1; fill-rule: nonzero; opacity: 1; white-space: pre" ><tspan x="-44.12" y="7.48" fill="rgba(0,0,0,1)">ASP.Net</tspan></text></g><g transform=" matrix(1 0 0 1 87 201.58) "><text xml:space="preserve" font-family="Verdana" font-size="11" font-weight="normal" style="stroke: none; stroke-width: 1; stroke-dasharray: none; stroke-linecap: butt; stroke-linejoin: miter; stroke-miterlimit: 10;fill:#000000;fill-opacity:1; fill-rule: nonzero; opacity: 1; white-space: pre" ><tspan x="-51.64" y="7.48" fill="rgba(0,0,0,1)">AJAX.Net</tspan></text></g><g transform=" matrix(1 0 0 1 87 220.58) "><text xml:space="preserve" font-family="Verdana" font-size="11" font-weight="normal" style="stroke: none; stroke-width: 1; stroke-dasharray: none; stroke-linecap: butt; stroke-linejoin: miter; stroke-miterlimit: 10;fill:#000000;fill-opacity:1; fill-rule: nonzero; opacity: 1; white-space: pre" ><tspan x="-17.68" y="7.48" fill="rgba(0,0,0,1)">C#</tspan></text></g><g transform=" matrix(1 0 0 1 87 239.58) "><text xml:space="preserve" font-family="Verdana" font-size="11" font-weight="normal" style="stroke: none; stroke-width: 1; stroke-dasharray: none; stroke-linecap: butt; stroke-linejoin: miter; stroke-miterlimit: 10;fill:#000000;fill-opacity:1; fill-rule: nonzero; opacity: 1; white-space: pre" ><tspan x="-30.41" y="7.48" fill="rgba(0,0,0,1)">JSON</tspan></text></g><g transform=" matrix(1 0 0 1 87 258.58000000000004) "><text xml:space="preserve" font-family="Verdana" font-size="11" font-weight="normal" style="stroke: none; stroke-width: 1; stroke-dasharray: none; stroke-linecap: butt; stroke-linejoin: miter; stroke-miterlimit: 10;fill:#000000;fill-opacity:1; fill-rule: nonzero; opacity: 1; white-space: pre" ><tspan x="-72.46" y="7.48" fill="rgba(0,0,0,1)">ASP.Net MVC</tspan></text></g><g transform=" matrix(1 0 0 1 87 278.58000000000004) "><text xml:space="preserve" font-family="Verdana" font-size="11" font-weight="normal" style="stroke: none; stroke-width: 1; stroke-dasharray: none; stroke-linecap: butt; stroke-linejoin: miter; stroke-miterlimit: 10;fill:#000000;fill-opacity:1; fill-rule: nonzero; opacity: 1; white-space: pre" ><tspan x="-25.42" y="7.48" fill="rgba(0,0,0,1)">Java</tspan></text></g><g transform=" matrix(1 0 0 1 87 297.58) "><text xml:space="preserve" font-family="Verdana" font-size="11" font-weight="normal" style="stroke: none; stroke-width: 1; stroke-dasharray: none; stroke-linecap: butt; stroke-linejoin: miter; stroke-miterlimit: 10;fill:#000000;fill-opacity:1; fill-rule: nonzero; opacity: 1; white-space: pre" ><tspan x="-24.83" y="7.48" fill="rgba(0,0,0,1)">WPF</tspan></text></g><g transform=" matrix(1 0 0 1 87 316.58) "><text xml:space="preserve" font-family="Verdana" font-size="11" font-weight="normal" style="stroke: none; stroke-width: 1; stroke-dasharray: none; stroke-linecap: butt; stroke-linejoin: miter; stroke-miterlimit: 10;fill:#000000;fill-opacity:1; fill-rule: nonzero; opacity: 1; white-space: pre" ><tspan x="-25.88" y="7.48" fill="rgba(0,0,0,1)">WCF</tspan></text></g><g transform=" matrix(1 0 0 1 87 335.58) "><text xml:space="preserve" font-family="Verdana" font-size="11" font-weight="normal" style="stroke: none; stroke-width: 1; stroke-dasharray: none; stroke-linecap: butt; stroke-linejoin: miter; stroke-miterlimit: 10;fill:#000000;fill-opacity:1; fill-rule: nonzero; opacity: 1; white-space: pre" ><tspan x="-63.68" y="7.48" fill="rgba(0,0,0,1)">SourceSafe</tspan></text></g><g transform=" matrix(1 0 0 1 87 354.58) "><text xml:space="preserve" font-family="Verdana" font-size="11" font-weight="normal" style="stroke: none; stroke-width: 1; stroke-dasharray: none; stroke-linecap: butt; stroke-linejoin: miter; stroke-miterlimit: 10;fill:#000000;fill-opacity:1; fill-rule: nonzero; opacity: 1; white-space: pre" ><tspan x="-56.12" y="7.48" fill="rgba(0,0,0,1)">ClearCase</tspan></text></g><g transform=" matrix(1 0 0 1 87 373.58) "><text xml:space="preserve" font-family="Verdana" font-size="11" font-weight="normal" style="stroke: none; stroke-width: 1; stroke-dasharray: none; stroke-linecap: butt; stroke-linejoin: miter; stroke-miterlimit: 10;fill:#000000;fill-opacity:1; fill-rule: nonzero; opacity: 1; white-space: pre" ><tspan x="-61.79" y="7.48" fill="rgba(0,0,0,1)">ClearQuest</tspan></text></g><g transform=" matrix(1 0 0 1 87 392.58) "><text xml:space="preserve" font-family="Verdana" font-size="11" font-weight="normal" style="stroke: none; stroke-width: 1; stroke-dasharray: none; stroke-linecap: butt; stroke-linejoin: miter; stroke-miterlimit: 10;fill:#000000;fill-opacity:1; fill-rule: nonzero; opacity: 1; white-space: pre" ><tspan x="-24.27" y="7.48" fill="rgba(0,0,0,1)">SVN</tspan></text></g><g transform=" matrix(1 0 0 1 87 412.58) "><text xml:space="preserve" font-family="Verdana" font-size="11" font-weight="normal" style="stroke: none; stroke-width: 1; stroke-dasharray: none; stroke-linecap: butt; stroke-linejoin: miter; stroke-miterlimit: 10;fill:#000000;fill-opacity:1; fill-rule: nonzero; opacity: 1; white-space: pre" ><tspan x="-30.35" y="7.48" fill="rgba(0,0,0,1)">PVCS</tspan></text></g><g transform=" matrix(1 0 0 1 87 431.58) "><text xml:space="preserve" font-family="Verdana" font-size="11" font-weight="normal" style="stroke: none; stroke-width: 1; stroke-dasharray: none; stroke-linecap: butt; stroke-linejoin: miter; stroke-miterlimit: 10;fill:#000000;fill-opacity:1; fill-rule: nonzero; opacity: 1; white-space: pre" ><tspan x="-20.94" y="7.48" fill="rgba(0,0,0,1)">GIT</tspan></text></g><g transform=" matrix(1 0 0 1 87 450.58) "><text xml:space="preserve" font-family="Verdana" font-size="11" font-weight="normal" style="stroke: none; stroke-width: 1; stroke-dasharray: none; stroke-linecap: butt; stroke-linejoin: miter; stroke-miterlimit: 10;fill:#000000;fill-opacity:1; fill-rule: nonzero; opacity: 1; white-space: pre" ><tspan x="-26.29" y="7.48" fill="rgba(0,0,0,1)">MDB</tspan></text></g><g transform=" matrix(1 0 0 1 87 469.58) "><text xml:space="preserve" font-family="Verdana" font-size="11" font-weight="normal" style="stroke: none; stroke-width: 1; stroke-dasharray: none; stroke-linecap: butt; stroke-linejoin: miter; stroke-miterlimit: 10;fill:#000000;fill-opacity:1; fill-rule: nonzero; opacity: 1; white-space: pre" ><tspan x="-43.96" y="7.48" fill="rgba(0,0,0,1)">MS SQL</tspan></text></g><g transform=" matrix(1 0 0 1 87 488.58) "><text xml:space="preserve" font-family="Verdana" font-size="11" font-weight="normal" style="stroke: none; stroke-width: 1; stroke-dasharray: none; stroke-linecap: butt; stroke-linejoin: miter; stroke-miterlimit: 10;fill:#000000;fill-opacity:1; fill-rule: nonzero; opacity: 1; white-space: pre" ><tspan x="-36.07" y="7.48" fill="rgba(0,0,0,1)">Oracle</tspan></text></g><g transform=" matrix(1 0 0 1 87 507.58) "><text xml:space="preserve" font-family="Verdana" font-size="11" font-weight="normal" style="stroke: none; stroke-width: 1; stroke-dasharray: none; stroke-linecap: butt; stroke-linejoin: miter; stroke-miterlimit: 10;fill:#000000;fill-opacity:1; fill-rule: nonzero; opacity: 1; white-space: pre" ><tspan x="-37.44" y="7.48" fill="rgba(0,0,0,1)">Mongo</tspan></text></g><g transform=" matrix(1 0 0 1 201 531.5) "><text xml:space="preserve" font-family="Verdana" font-size="11" font-weight="normal" style="stroke: none; stroke-width: 1; stroke-dasharray: none; stroke-linecap: butt; stroke-linejoin: miter; stroke-miterlimit: 10;fill:#000000;fill-opacity:1; fill-rule: nonzero; opacity: 1; white-space: pre" ><tspan x="0" y="7.48" fill="rgba(0,0,0,1)">2005</tspan></text></g><g transform=" matrix(1 0 0 1 367 531.5) "><text xml:space="preserve" font-family="Verdana" font-size="11" font-weight="normal" style="stroke: none; stroke-width: 1; stroke-dasharray: none; stroke-linecap: butt; stroke-linejoin: miter; stroke-miterlimit: 10;fill:#000000;fill-opacity:1; fill-rule: nonzero; opacity: 1; white-space: pre" ><tspan x="0" y="7.48" fill="rgba(0,0,0,1)">2010</tspan></text></g><g transform=" matrix(1 0 0 1 533 531.5) "><text xml:space="preserve" font-family="Verdana" font-size="11" font-weight="normal" style="stroke: none; stroke-width: 1; stroke-dasharray: none; stroke-linecap: butt; stroke-linejoin: miter; stroke-miterlimit: 10;fill:#000000;fill-opacity:1; fill-rule: nonzero; opacity: 1; white-space: pre" ><tspan x="0" y="7.48" fill="rgba(0,0,0,1)">2015</tspan></text></g></g><g transform="translate(164.05 51.72)"><text xml:space="preserve" font-family="Verdana" font-size="11" font-weight="normal" style="stroke: none; stroke-width: 1; stroke-dasharray: none; stroke-linecap: butt; stroke-linejoin: miter; stroke-miterlimit: 10;fill:#000000;fill-opacity:1; fill-rule: nonzero; opacity: 0.7; white-space: pre" ><tspan x="-59.55" y="3.46" fill="rgb(0, 0, 0)">JS chart by amCharts</tspan></text></g><clipPath xmlns="http://www.w3.org/2000/svg" id="AmChartsEl-4"><rect x="0" y="0" width="530" height="479" rx="0" ry="0" stroke-width="0" fill="none" fill-opacity="0"/></clipPath></svg>